<?xml version="1.0" encoding="UTF-8"?><!DOCTYPE svg PUBLIC "-//W3C//DTD SVG 1.1//EN" "http://www.w3.org/Graphics/SVG/1.1/DTD/svg11.dtd"><svg xmlns="http://www.w3.org/2000/svg" xmlns:xlink="http://www.w3.org/1999/xlink" version="1.1" id="Layer_1" x="0px" y="0px" width="512px" height="512px" viewBox="0 0 512 512" xml:space="preserve"><path d="M359.385 80C319.966 80 277.171 97.599 256 132.8 234.83 97.599 192.034 80 152.615 80 83.647 80 32 123.238 32 195.779c0 31.288 12.562 71.924 40.923 105.657 28.359 33.735 45.229 51.7 100.153 88C228 425.738 256 432 256 432s28-6.262 82.924-42.564c54.923-36.3 71.794-54.265 100.153-88C467.438 267.703 480 227.067 480 195.779 480 123.238 428.353 80 359.385 80z"/><metadata><rdf:RDF xmlns:rdf="http://www.w3.org/1999/02/22-rdf-syntax-ns#" xmlns:rdfs="http://www.w3.org/2000/01/rdf-schema#" xmlns:dc="http://purl.org/dc/elements/1.1/"><rdf:Description about="https://iconscout.com/legal#licenses" dc:title="ios,heart" dc:description="ios,heart" dc:publisher="Iconscout" dc:date="2017-09-24" dc:format="image/svg+xml" dc:language="en"><dc:creator><rdf:Bag><rdf:li>Benjamin J Sperry</rdf:li></rdf:Bag></dc:creator></rdf:Description></rdf:RDF></metadata></svg>