<?xml version="1.0" encoding="UTF-8" standalone="no"?>
<svg xmlns:dc="http://purl.org/dc/elements/1.1/" xmlns:cc="http://creativecommons.org/ns#" xmlns:rdf="http://www.w3.org/1999/02/22-rdf-syntax-ns#" xmlns:svg="http://www.w3.org/2000/svg" xmlns="http://www.w3.org/2000/svg" xmlns:sodipodi="http://sodipodi.sourceforge.net/DTD/sodipodi-0.dtd" xmlns:inkscape="http://www.inkscape.org/namespaces/inkscape" width="16px" height="16px" viewBox="0 0 16 16" id="svg3848" version="1.1" inkscape:version="0.91 r13725" sodipodi:docname="20.svg">
  <defs id="defs3850"/>
  <sodipodi:namedview id="base" pagecolor="#ffffff" bordercolor="#666666" borderopacity="1.0" inkscape:pageopacity="0.0" inkscape:pageshadow="2" inkscape:zoom="22.4" inkscape:cx="-3.9491494" inkscape:cy="4.1011202" inkscape:document-units="px" inkscape:current-layer="layer1" showgrid="true" units="px" inkscape:snap-bbox="true" inkscape:bbox-paths="true" inkscape:bbox-nodes="true" inkscape:snap-bbox-edge-midpoints="true" inkscape:snap-bbox-midpoints="true" inkscape:window-width="1366" inkscape:window-height="705" inkscape:window-x="-8" inkscape:window-y="-8" inkscape:window-maximized="1">
    <inkscape:grid type="xygrid" id="grid3856"/>
  </sodipodi:namedview>
  
  <g inkscape:label="Layer 1" inkscape:groupmode="layer" id="layer1" transform="translate(0,-1036.3622)">
    <path style="color:#000000;font-style:normal;font-variant:normal;font-weight:normal;font-stretch:normal;font-size:medium;line-height:normal;font-family:sans-serif;text-indent:0;text-align:start;text-decoration:none;text-decoration-line:none;text-decoration-style:solid;text-decoration-color:#000000;letter-spacing:normal;word-spacing:normal;text-transform:none;direction:ltr;block-progression:tb;writing-mode:lr-tb;baseline-shift:baseline;text-anchor:start;white-space:normal;clip-rule:nonzero;display:inline;overflow:visible;visibility:visible;opacity:1;isolation:auto;mix-blend-mode:normal;color-interpolation:sRGB;color-interpolation-filters:linearRGB;solid-color:#000000;solid-opacity:1;fill:#000000;fill-opacity:1;fill-rule:nonzero;stroke:none;stroke-width:1;stroke-linecap:round;stroke-linejoin:round;stroke-miterlimit:4;stroke-dasharray:none;stroke-dashoffset:0;stroke-opacity:1;color-rendering:auto;image-rendering:auto;shape-rendering:auto;text-rendering:auto;enable-background:accumulate" d="M 5 2 L 5 3 L 3.5 3 A 0.50005 0.50005 0 0 0 3 3.5 L 3 14.5 A 0.50005 0.50005 0 0 0 3.5 15 L 12.5 15 A 0.50005 0.50005 0 0 0 13 14.5 L 13 3.5 A 0.50005 0.50005 0 0 0 12.5 3 L 11 3 L 11 2 L 5 2 z M 4 4 L 5 4 L 5 5 L 11 5 L 11 4 L 12 4 L 12 14 L 4 14 L 4 4 z M 5.5 6 A 0.5 0.5 0 0 0 5 6.5 A 0.5 0.5 0 0 0 5.5 7 A 0.5 0.5 0 0 0 6 6.5 A 0.5 0.5 0 0 0 5.5 6 z M 7 6 L 7 7 L 11 7 L 11 6 L 7 6 z M 5.5 8 A 0.5 0.5 0 0 0 5 8.5 A 0.5 0.5 0 0 0 5.5 9 A 0.5 0.5 0 0 0 6 8.5 A 0.5 0.5 0 0 0 5.5 8 z M 7 8 L 7 9 L 11 9 L 11 8 L 7 8 z M 5.5 10 A 0.5 0.5 0 0 0 5 10.5 A 0.5 0.5 0 0 0 5.5 11 A 0.5 0.5 0 0 0 6 10.5 A 0.5 0.5 0 0 0 5.5 10 z M 7 10 L 7 11 L 11 11 L 11 10 L 7 10 z M 5.5 12 A 0.5 0.5 0 0 0 5 12.5 A 0.5 0.5 0 0 0 5.5 13 A 0.5 0.5 0 0 0 6 12.5 A 0.5 0.5 0 0 0 5.5 12 z M 7 12 L 7 13 L 11 13 L 11 12 L 7 12 z " transform="translate(0,1036.3622)" id="rect4226"/>
  </g>

	
	
	
	<metadata>
		<rdf:RDF xmlns:rdf="http://www.w3.org/1999/02/22-rdf-syntax-ns#" xmlns:rdfs="http://www.w3.org/2000/01/rdf-schema#" xmlns:dc="http://purl.org/dc/elements/1.1/">
			<rdf:Description about="https://iconscout.com/legal#licenses" dc:title="Note, Clipboard, Art, Document, Report, Board, List, Checklist" dc:description="Note, Clipboard, Art, Document, Report, Board, List, Checklist" dc:publisher="Iconscout" dc:date="2016-12-14" dc:format="image/svg+xml" dc:language="en">
				<dc:creator>
					<rdf:Bag>
						<rdf:li>Mohit Gandhi</rdf:li>
					</rdf:Bag>
				</dc:creator>
			</rdf:Description>
		</rdf:RDF>
    </metadata></svg>
