<?xml version="1.0" encoding="UTF-8" standalone="no"?><svg xmlns="http://www.w3.org/2000/svg" xmlns:xlink="http://www.w3.org/1999/xlink" width="21px" height="20px" viewBox="0 0 21 20" version="1.1"><title>menu_navigation_grid [#1528]</title><g id="Page-1" stroke="none" stroke-width="1" fill="none" fill-rule="evenodd"><g id="Dribbble-Light-Preview" transform="translate(-139.000000, -200.000000)" fill="#000"><g id="icons" transform="translate(56.000000, 160.000000)"><path d="M101.9 57.009c0 .551-.518.991-1.097.991h-3.15a.98.98 0 0 1-1.003-.991v-3A.994.994 0 0 1 97.653 53h3.15c.58 0 1.097.458 1.097 1.009v3zM100.803 51h-3.15c-1.74 0-3.103 1.352-3.103 3.009v3c0 1.657 1.363 2.991 3.103 2.991h3.15c1.74 0 3.197-1.334 3.197-2.991v-3c0-1.657-1.457-3.009-3.197-3.009zM90.35 57.009c0 .551-.518.991-1.097.991h-3.15a.98.98 0 0 1-1.003-.991v-3A.994.994 0 0 1 86.103 53h3.15c.58 0 1.097.458 1.097 1.009v3zM89.253 51h-3.15C84.363 51 83 52.352 83 54.009v3C83 58.666 84.363 60 86.103 60h3.15c1.74 0 3.197-1.334 3.197-2.991v-3c0-1.657-1.457-3.009-3.197-3.009zm12.647-4.991c0 .551-.518.991-1.097.991h-3.15a.98.98 0 0 1-1.003-.991v-3A.994.994 0 0 1 97.653 42h3.15c.58 0 1.097.458 1.097 1.009v3zM100.803 40h-3.15c-1.74 0-3.103 1.352-3.103 3.009v3c0 1.657 1.363 2.991 3.103 2.991h3.15c1.74 0 3.197-1.334 3.197-2.991v-3c0-1.657-1.457-3.009-3.197-3.009zM90.35 46.009c0 .551-.518.991-1.097.991h-3.15a.98.98 0 0 1-1.003-.991v-3A.994.994 0 0 1 86.103 42h3.15c.58 0 1.097.458 1.097 1.009v3zM89.253 40h-3.15C84.363 40 83 41.352 83 43.009v3C83 47.666 84.363 49 86.103 49h3.15c1.74 0 3.197-1.334 3.197-2.991v-3c0-1.657-1.457-3.009-3.197-3.009z" id="menu_navigation_grid-[#1528]"/></g></g></g><metadata><rdf:RDF xmlns:rdf="http://www.w3.org/1999/02/22-rdf-syntax-ns#" xmlns:rdfs="http://www.w3.org/2000/01/rdf-schema#" xmlns:dc="http://purl.org/dc/elements/1.1/"><rdf:Description about="https://iconscout.com/legal#licenses" dc:title="menu,navigation,grid" dc:description="menu,navigation,grid" dc:publisher="Iconscout" dc:date="2017-09-15" dc:format="image/svg+xml" dc:language="en"><dc:creator><rdf:Bag><rdf:li>Alexandru Stoica</rdf:li></rdf:Bag></dc:creator></rdf:Description></rdf:RDF></metadata></svg>