<svg xmlns="http://www.w3.org/2000/svg" enable-background="new 0 0 64 64" viewBox="0 0 64 64"><g display="none"><path fill="#ccc" d="M63.8,0.2v63.5H0.2V0.2H63.8 M64,0H0v64h64V0L64,0z"/><line x2="64" y2="64" fill="none" stroke="#ccc" stroke-miterlimit="10" stroke-width=".25"/><line x2="64" y1="64" fill="none" stroke="#ccc" stroke-miterlimit="10" stroke-width=".25"/><circle cx="32" cy="32" r="32" fill="none" stroke="#ccc" stroke-miterlimit="10" stroke-width=".25"/><rect width="45.3" height="45.3" x="9.4" y="9.4" fill="none" stroke="#ccc" stroke-miterlimit="10" stroke-width=".25"/><line x2="64" y1="32" y2="32" fill="none" stroke="#ccc" stroke-miterlimit="10" stroke-width=".25"/><line x1="32" x2="32" y1="64" fill="none" stroke="#ccc" stroke-miterlimit="10" stroke-width=".25"/><line x1="16" x2="16" y1="64" fill="none" stroke="#ccc" stroke-miterlimit="10" stroke-width=".25"/><line x1="48" x2="48" y1="64" fill="none" stroke="#ccc" stroke-miterlimit="10" stroke-width=".25"/><circle cx="32" cy="32" r="22.6" fill="none" stroke="#ccc" stroke-miterlimit="10" stroke-width=".25"/><line x1="64" y1="48" y2="48" fill="none" stroke="#ccc" stroke-miterlimit="10" stroke-width=".25"/><line x1="64" y1="16" y2="16" fill="none" stroke="#ccc" stroke-miterlimit="10" stroke-width=".25"/><circle cx="32" cy="32" r="16" fill="none" stroke="#ccc" stroke-miterlimit="10" stroke-width=".25"/><circle cx="32" cy="32" r="8" fill="none" stroke="#ccc" stroke-miterlimit="10" stroke-width=".25"/></g><path fill="#f45b66" d="M11 42v3c0 0 0 2 2 2s13 0 13 0 2 0 2-2v-3H11zM52 34v-6c0 0 0-2-2-2s-2 2-2 2 0 3-4 3-4-3-4-3 0-2-2-2-4 1-4 1l-15.3 8c.2 0 .3 0 .3 0s6 0 6 7h19C44 34 52 34 52 34z"/><path fill="#680b12" d="M50,25c-2.2,0-3,1.8-3,3c0,0.1,0,2-3,2c-2.8,0-3-1.7-3-2c0-0.9-0.4-2-1.5-2.6l2.9-1.5l-0.9-1.8l-8,4l0,0
				c0,0,0,0,0,0l-21,11C12.4,37.2,10,38.4,10,42v3c0,1.2,0.8,3,3,3h12h1h24c1.2,0,3-0.8,3-3v-3V28C53,26.8,52.2,25,50,25z
				 M34.4,27.9c0,0,1.8-0.9,3.6-0.9c0.8,0,1,0.6,1,1c0,1.4,1,4,5,4s5-2.6,5-4c0-0.5,0.2-1,1-1s1,0.6,1,1v5.1c-3,0.3-7.5,2.3-7.9,7.9
				H25.9c-0.3-3.9-2.5-5.6-4.3-6.4L34.4,27.9z M51,35.1V41h-5.9C45.5,36.5,49.2,35.4,51,35.1z M13.5,38.9L19,36v0
				c0.2,0,4.4,0.1,4.9,5H12.1C12.4,39.5,13.4,38.9,13.5,38.9z M25,46H13c-0.8,0-1-0.6-1-1v-2h15v2c0,0.8-0.5,1-1,1H25z M50,46H28.8
				c0.1-0.3,0.2-0.6,0.2-1v-2h22v2C51,45.8,50.5,46,50,46z"/><circle cx="34" cy="31" r="1" fill="#680b12"/><circle cx="29" cy="34" r="1" fill="#680b12"/></svg>